<mxfile host="Electron" agent="Mozilla/5.0 (X11; Linux x86_64) AppleWebKit/537.36 (KHTML, like Gecko) draw.io/24.7.17 Chrome/128.0.6613.36 Electron/32.0.1 Safari/537.36" version="24.7.17">
  <diagram name="Página-1" id="deQrFmjIq3PU1oyAQY_J">
    <mxGraphModel dx="1311" dy="780" grid="1" gridSize="10" guides="1" tooltips="1" connect="1" arrows="1" fold="1" page="1" pageScale="1" pageWidth="827" pageHeight="1169" math="0" shadow="0">
      <root>
        <mxCell id="0" />
        <mxCell id="1" parent="0" />
        <mxCell id="lUH5QnvvUMtT3iqDwxiY-29" value="" style="whiteSpace=wrap;html=1;aspect=fixed;fontColor=#FF0000;labelBorderColor=#0000CC;" vertex="1" parent="1">
          <mxGeometry x="120" y="90" width="700" height="700" as="geometry" />
        </mxCell>
        <mxCell id="lUH5QnvvUMtT3iqDwxiY-8" value="" style="rounded=1;whiteSpace=wrap;html=1;strokeColor=#FF0000;" vertex="1" parent="1">
          <mxGeometry x="314" y="490" width="210" height="70" as="geometry" />
        </mxCell>
        <mxCell id="lUH5QnvvUMtT3iqDwxiY-1" value="MULTI-HEAD ATTENTION" style="rounded=1;whiteSpace=wrap;html=1;strokeColor=#FF0000;" vertex="1" parent="1">
          <mxGeometry x="304" y="510" width="210" height="70" as="geometry" />
        </mxCell>
        <mxCell id="lUH5QnvvUMtT3iqDwxiY-3" value="" style="endArrow=none;html=1;rounded=0;" edge="1" parent="1">
          <mxGeometry width="50" height="50" relative="1" as="geometry">
            <mxPoint x="344" y="670" as="sourcePoint" />
            <mxPoint x="484" y="670" as="targetPoint" />
          </mxGeometry>
        </mxCell>
        <mxCell id="lUH5QnvvUMtT3iqDwxiY-4" value="" style="endArrow=classic;html=1;rounded=0;" edge="1" parent="1">
          <mxGeometry width="50" height="50" relative="1" as="geometry">
            <mxPoint x="414" y="670" as="sourcePoint" />
            <mxPoint x="414" y="580" as="targetPoint" />
          </mxGeometry>
        </mxCell>
        <mxCell id="lUH5QnvvUMtT3iqDwxiY-5" value="" style="endArrow=classic;html=1;rounded=0;entryX=0.205;entryY=1;entryDx=0;entryDy=0;entryPerimeter=0;" edge="1" parent="1" target="lUH5QnvvUMtT3iqDwxiY-1">
          <mxGeometry width="50" height="50" relative="1" as="geometry">
            <mxPoint x="347" y="670" as="sourcePoint" />
            <mxPoint x="394" y="620" as="targetPoint" />
          </mxGeometry>
        </mxCell>
        <mxCell id="lUH5QnvvUMtT3iqDwxiY-6" value="" style="endArrow=classic;html=1;rounded=0;entryX=0.852;entryY=1.043;entryDx=0;entryDy=0;entryPerimeter=0;" edge="1" parent="1" target="lUH5QnvvUMtT3iqDwxiY-1">
          <mxGeometry width="50" height="50" relative="1" as="geometry">
            <mxPoint x="484" y="670" as="sourcePoint" />
            <mxPoint x="534" y="620" as="targetPoint" />
          </mxGeometry>
        </mxCell>
        <mxCell id="lUH5QnvvUMtT3iqDwxiY-7" value="" style="endArrow=none;html=1;rounded=0;" edge="1" parent="1">
          <mxGeometry width="50" height="50" relative="1" as="geometry">
            <mxPoint x="414" y="880" as="sourcePoint" />
            <mxPoint x="414" y="670" as="targetPoint" />
          </mxGeometry>
        </mxCell>
        <mxCell id="lUH5QnvvUMtT3iqDwxiY-18" style="edgeStyle=orthogonalEdgeStyle;rounded=0;orthogonalLoop=1;jettySize=auto;html=1;entryX=0.468;entryY=1;entryDx=0;entryDy=0;entryPerimeter=0;" edge="1" parent="1" source="lUH5QnvvUMtT3iqDwxiY-9" target="lUH5QnvvUMtT3iqDwxiY-10">
          <mxGeometry relative="1" as="geometry">
            <mxPoint x="414.5" y="330" as="targetPoint" />
          </mxGeometry>
        </mxCell>
        <mxCell id="lUH5QnvvUMtT3iqDwxiY-9" value="ADD &amp;amp;&amp;nbsp;&lt;div&gt;NORM&lt;/div&gt;" style="rounded=1;whiteSpace=wrap;html=1;strokeColor=#CC6600;" vertex="1" parent="1">
          <mxGeometry x="359" y="380" width="111" height="50" as="geometry" />
        </mxCell>
        <mxCell id="lUH5QnvvUMtT3iqDwxiY-24" style="edgeStyle=orthogonalEdgeStyle;rounded=0;orthogonalLoop=1;jettySize=auto;html=1;entryX=0.5;entryY=1;entryDx=0;entryDy=0;" edge="1" parent="1" source="lUH5QnvvUMtT3iqDwxiY-10" target="lUH5QnvvUMtT3iqDwxiY-23">
          <mxGeometry relative="1" as="geometry" />
        </mxCell>
        <mxCell id="lUH5QnvvUMtT3iqDwxiY-10" value="FEED FORWARD&lt;div&gt;NEURAL NETWORK&lt;/div&gt;" style="rounded=1;whiteSpace=wrap;html=1;" vertex="1" parent="1">
          <mxGeometry x="348.5" y="250" width="141" height="60" as="geometry" />
        </mxCell>
        <mxCell id="lUH5QnvvUMtT3iqDwxiY-16" value="" style="endArrow=classic;html=1;rounded=0;" edge="1" parent="1">
          <mxGeometry width="50" height="50" relative="1" as="geometry">
            <mxPoint x="414" y="490" as="sourcePoint" />
            <mxPoint x="414" y="430" as="targetPoint" />
          </mxGeometry>
        </mxCell>
        <mxCell id="lUH5QnvvUMtT3iqDwxiY-19" value="" style="endArrow=classic;html=1;rounded=0;strokeColor=#0000FF;" edge="1" parent="1">
          <mxGeometry width="50" height="50" relative="1" as="geometry">
            <mxPoint x="209" y="400" as="sourcePoint" />
            <mxPoint x="359" y="400" as="targetPoint" />
          </mxGeometry>
        </mxCell>
        <mxCell id="lUH5QnvvUMtT3iqDwxiY-20" value="" style="endArrow=none;html=1;rounded=0;strokeColor=#0000FF;" edge="1" parent="1">
          <mxGeometry width="50" height="50" relative="1" as="geometry">
            <mxPoint x="210" y="760" as="sourcePoint" />
            <mxPoint x="210" y="400" as="targetPoint" />
          </mxGeometry>
        </mxCell>
        <mxCell id="lUH5QnvvUMtT3iqDwxiY-21" value="" style="endArrow=none;html=1;rounded=0;strokeColor=#0000FF;fontStyle=1" edge="1" parent="1">
          <mxGeometry width="50" height="50" relative="1" as="geometry">
            <mxPoint x="210" y="760" as="sourcePoint" />
            <mxPoint x="410" y="760" as="targetPoint" />
          </mxGeometry>
        </mxCell>
        <mxCell id="lUH5QnvvUMtT3iqDwxiY-23" value="ADD &amp;amp;&amp;nbsp;&lt;div&gt;NORM&lt;/div&gt;" style="rounded=1;whiteSpace=wrap;html=1;strokeColor=#CC6600;" vertex="1" parent="1">
          <mxGeometry x="363.5" y="130" width="111" height="50" as="geometry" />
        </mxCell>
        <mxCell id="lUH5QnvvUMtT3iqDwxiY-25" value="" style="endArrow=classic;html=1;rounded=0;entryX=0;entryY=0.5;entryDx=0;entryDy=0;fontColor=#0000FF;strokeColor=#0000FF;" edge="1" parent="1" target="lUH5QnvvUMtT3iqDwxiY-23">
          <mxGeometry width="50" height="50" relative="1" as="geometry">
            <mxPoint x="230" y="155" as="sourcePoint" />
            <mxPoint x="360" y="170" as="targetPoint" />
          </mxGeometry>
        </mxCell>
        <mxCell id="lUH5QnvvUMtT3iqDwxiY-26" value="" style="endArrow=none;html=1;rounded=0;fontColor=#0000FF;strokeColor=#0000FF;" edge="1" parent="1">
          <mxGeometry width="50" height="50" relative="1" as="geometry">
            <mxPoint x="230" y="340" as="sourcePoint" />
            <mxPoint x="230" y="160" as="targetPoint" />
          </mxGeometry>
        </mxCell>
        <mxCell id="lUH5QnvvUMtT3iqDwxiY-27" value="" style="endArrow=none;html=1;rounded=0;fontColor=#0000FF;strokeColor=#0000FF;" edge="1" parent="1">
          <mxGeometry width="50" height="50" relative="1" as="geometry">
            <mxPoint x="230" y="340" as="sourcePoint" />
            <mxPoint x="410" y="340" as="targetPoint" />
          </mxGeometry>
        </mxCell>
        <mxCell id="lUH5QnvvUMtT3iqDwxiY-28" value="" style="endArrow=classic;html=1;rounded=0;" edge="1" parent="1">
          <mxGeometry width="50" height="50" relative="1" as="geometry">
            <mxPoint x="420" y="130" as="sourcePoint" />
            <mxPoint x="420" y="40" as="targetPoint" />
          </mxGeometry>
        </mxCell>
        <mxCell id="lUH5QnvvUMtT3iqDwxiY-30" value="&lt;b&gt;&lt;font style=&quot;font-size: 24px;&quot;&gt;+&lt;/font&gt;&lt;/b&gt;" style="ellipse;whiteSpace=wrap;html=1;aspect=fixed;" vertex="1" parent="1">
          <mxGeometry x="384.5" y="880" width="60" height="60" as="geometry" />
        </mxCell>
        <mxCell id="lUH5QnvvUMtT3iqDwxiY-31" value="" style="endArrow=none;html=1;rounded=0;" edge="1" parent="1">
          <mxGeometry width="50" height="50" relative="1" as="geometry">
            <mxPoint x="414" y="1020" as="sourcePoint" />
            <mxPoint x="413.5" y="940" as="targetPoint" />
          </mxGeometry>
        </mxCell>
        <mxCell id="lUH5QnvvUMtT3iqDwxiY-33" value="&lt;font style=&quot;font-size: 15px;&quot;&gt;&lt;b&gt;&amp;lt;SOS&amp;gt;&lt;/b&gt;&amp;nbsp; x&lt;sup&gt;&amp;lt;1&amp;gt;&lt;/sup&gt;......... x&lt;sup&gt;&amp;lt;T&amp;gt;&lt;/sup&gt;&lt;b&gt;&amp;lt;EOS&amp;gt;&lt;/b&gt;&lt;/font&gt;&lt;div&gt;&lt;font style=&quot;font-size: 15px;&quot;&gt;Cuando pueda volveré a Japón-&lt;/font&gt;&lt;/div&gt;" style="text;html=1;align=center;verticalAlign=middle;resizable=0;points=[];autosize=1;strokeColor=none;fillColor=none;" vertex="1" parent="1">
          <mxGeometry x="284" y="1040" width="240" height="50" as="geometry" />
        </mxCell>
        <mxCell id="lUH5QnvvUMtT3iqDwxiY-34" value="&lt;b&gt;&lt;font color=&quot;#4c0099&quot; style=&quot;font-size: 19px;&quot;&gt;N times&lt;/font&gt;&lt;/b&gt;" style="text;html=1;align=center;verticalAlign=middle;whiteSpace=wrap;rounded=0;" vertex="1" parent="1">
          <mxGeometry x="20" y="380" width="60" height="30" as="geometry" />
        </mxCell>
      </root>
    </mxGraphModel>
  </diagram>
</mxfile>
